<?xml version="1.0" encoding="UTF-8" standalone="no"?>
<!-- Created with Inkscape (http://www.inkscape.org/) -->

<svg
   width="28.045834mm"
   height="26.981853mm"
   viewBox="0 0 28.045834 26.981853"
   version="1.1"
   id="svg1"
   xml:space="preserve"
   xmlns:inkscape="http://www.inkscape.org/namespaces/inkscape"
   xmlns:sodipodi="http://sodipodi.sourceforge.net/DTD/sodipodi-0.dtd"
   xmlns="http://www.w3.org/2000/svg"
   xmlns:svg="http://www.w3.org/2000/svg"><sodipodi:namedview
     id="namedview1"
     pagecolor="#505050"
     bordercolor="#ffffff"
     borderopacity="1"
     inkscape:showpageshadow="0"
     inkscape:pageopacity="0"
     inkscape:pagecheckerboard="1"
     inkscape:deskcolor="#505050"
     inkscape:document-units="mm" /><defs
     id="defs1" /><g
     inkscape:label="Camada 1"
     inkscape:groupmode="layer"
     id="layer1"
     transform="translate(-46.290681,-33.92913)"><g
       id="g1"
       inkscape:export-filename="g1.svg"
       inkscape:export-xdpi="96"
       inkscape:export-ydpi="96"><rect
         style="fill:#ffffff;stroke-width:0.309971"
         id="rect1"
         width="18.34042"
         height="19.115366"
         x="50.629887"
         y="38.747364" /><path
         style="fill:#000000"
         d="m 47.714911,60.497717 c -0.45359,-0.22377 -0.95961,-0.702914 -1.12448,-1.064757 -0.20878,-0.458239 -0.29975,-4.193285 -0.29975,-12.307465 v -11.64957 l 0.77339,-0.773397 0.7734,-0.773397 h 12.43547 12.43547 l 0.81405,0.684978 0.814053,0.684978 v 11.900124 c 0,8.018442 -0.0933,12.074364 -0.285883,12.434295 -0.6538,1.221631 -1.32217,1.283511 -13.79468,1.277101 -9.99992,-0.005 -11.83713,-0.0656 -12.54104,-0.41289 z m 21.47323,-5.155146 c 0.0961,-0.155496 -0.0752,-0.347702 -0.38126,-0.427733 -0.49617,-0.129751 -0.55579,-0.339029 -0.55579,-1.950952 0,-0.993085 -0.11906,-1.879194 -0.26458,-1.969131 -0.44539,-0.275269 -0.33145,-4.865726 0.13229,-5.329464 0.21828,-0.218281 0.39688,-0.792351 0.39688,-1.27571 0,-0.552947 0.15338,-0.937696 0.41364,-1.037566 1.17068,-0.449231 -1.25575,-1.134387 -2.64536,-0.746977 -0.84014,0.234224 -1.25179,0.849092 -0.56846,0.849092 0.3129,0 0.41893,0.269954 0.41893,1.066638 0,0.704046 0.13491,1.118408 0.39687,1.218932 0.3138,0.120417 0.39688,0.672508 0.39688,2.637529 0,1.480434 -0.10698,2.485234 -0.26459,2.485234 -0.15287,0 -0.26458,0.837848 -0.26458,1.984375 0,1.940278 -0.0147,1.984375 -0.66146,1.984375 -0.63771,0 -0.66146,-0.06174 -0.66146,-1.719791 0,-0.945886 -0.10632,-1.719792 -0.23627,-1.719792 -0.30578,0 -0.55748,0.666787 -0.55748,1.476848 0,0.633789 -0.0248,0.639819 -2.62986,0.639819 h -2.62986 l -0.0821,-0.93157 c -0.13833,-1.569244 -0.60608,-1.161962 -0.69005,0.600841 l -0.0788,1.653645 h -1.04571 -1.04571 v -2.352567 c 0,-2.346679 0.002,-2.353014 0.7276,-2.531459 1.98415,-0.487834 2.77078,-1.861492 2.77078,-4.838501 0,-4.397857 -2.91895,-7.106762 -5.76348,-5.348745 -1.33431,0.824649 -2.05689,2.580738 -2.1717,5.277897 -0.1326,3.114946 0.47117,4.15534 2.91545,5.023832 0.71663,0.25463 0.7276,0.292546 0.7276,2.514036 v 2.255507 h -1.85208 c -1.46991,0 -1.85209,0.0819 -1.85209,0.396875 0,0.344746 1.1448,0.396875 8.71564,0.396875 5.89144,0 8.77219,-0.0915 8.89016,-0.282392 z M 58.990681,54.56663 c 0,-0.15875 1.05833,-0.264583 2.64583,-0.264583 1.5875,0 2.64583,0.105833 2.64583,0.264583 0,0.15875 -1.05833,0.264583 -2.64583,0.264583 -1.5875,0 -2.64583,-0.105833 -2.64583,-0.264583 z m 8.28677,-1.322917 c 0,-0.945885 0.048,-1.332838 0.10671,-0.859895 0.0587,0.472942 0.0587,1.246849 0,1.719791 -0.0587,0.472943 -0.10671,0.08599 -0.10671,-0.859896 z M 53.275681,48.37538 c -0.68649,-0.686484 -0.90835,-1.140887 -0.93657,-1.918229 -0.10035,-2.764042 0.32039,-4.403839 1.43867,-5.607169 0.90931,-0.978451 1.67765,-1.170239 2.71541,-0.677793 1.97319,0.93634 3.10443,5.622346 1.85671,7.691166 -0.46123,0.764762 -1.38572,1.411609 -2.01751,1.411609 -0.49328,0 -0.24163,-0.975953 0.40933,-1.5875 0.65191,-0.612441 0.88245,-1.322917 0.42927,-1.322917 -0.1277,0 -0.39559,0.198055 -0.59531,0.440123 -0.31608,0.383096 -0.38027,0.171541 -0.49542,-1.632765 -0.0844,-1.322863 -0.25196,-2.112355 -0.46302,-2.181963 -0.2334,-0.07697 -0.33073,0.259876 -0.33073,1.144605 0,1.197787 -0.0216,1.234158 -0.48385,0.815799 -1.20762,-1.092874 -1.5024,-0.12516 -0.3099,1.017326 0.66666,0.638702 0.79375,0.96435 0.79375,2.033876 0,1.11724 -0.0681,1.273416 -0.55562,1.273416 -0.3056,0 -0.96044,-0.404813 -1.45521,-0.899584 z m 13.6525,-4.259791 c 0,-0.64676 0.11969,-0.926042 0.39687,-0.926042 0.27718,0 0.39688,0.279282 0.39688,0.926042 0,0.646759 -0.1197,0.926041 -0.39688,0.926041 -0.27718,0 -0.39687,-0.279282 -0.39687,-0.926041 z m -6.93149,7.801736 c -0.0953,-1.580788 -0.57404,-1.879063 -0.69291,-0.431725 -0.0954,1.16143 0.0696,1.758113 0.48617,1.758113 0.1784,0 0.2565,-0.501064 0.20674,-1.326388 z m 1.32292,0 c -0.1066,-1.76794 -0.58841,-1.81176 -0.68911,-0.06267 -0.0652,1.131777 -0.001,1.389062 0.34455,1.389062 0.34383,0 0.40933,-0.252136 0.34456,-1.326388 z m 1.32291,0 c -0.10659,-1.76794 -0.58841,-1.81176 -0.68911,-0.06267 -0.0652,1.131777 -0.001,1.389062 0.34456,1.389062 0.34383,0 0.40933,-0.252136 0.34455,-1.326388 z m 1.32292,0 c -0.10659,-1.76794 -0.58841,-1.81176 -0.68911,-0.06267 -0.0652,1.131777 -10e-4,1.389062 0.34456,1.389062 0.34382,0 0.40932,-0.252136 0.34455,-1.326388 z"
         id="path1" /></g></g></svg>
