<?xml version="1.0" encoding="UTF-8" standalone="no"?>
<!-- Created with Inkscape (http://www.inkscape.org/) -->

<svg
   width="103.1875mm"
   height="9.0551157mm"
   viewBox="0 0 103.1875 9.0551157"
   version="1.1"
   id="svg1"
   xml:space="preserve"
   xmlns:inkscape="http://www.inkscape.org/namespaces/inkscape"
   xmlns:sodipodi="http://sodipodi.sourceforge.net/DTD/sodipodi-0.dtd"
   xmlns="http://www.w3.org/2000/svg"
   xmlns:svg="http://www.w3.org/2000/svg"><sodipodi:namedview
     id="namedview1"
     pagecolor="#505050"
     bordercolor="#ffffff"
     borderopacity="1"
     inkscape:showpageshadow="0"
     inkscape:pageopacity="0"
     inkscape:pagecheckerboard="1"
     inkscape:deskcolor="#505050"
     inkscape:document-units="mm" /><defs
     id="defs1" /><g
     inkscape:label="Camada 1"
     inkscape:groupmode="layer"
     id="layer1"
     transform="translate(-93.364809,-268.62896)"><path
       style="fill:#ffffff"
       d="m 95.395639,277.31463 c -0.55653,-0.20322 -1.0425,-0.41024 -1.07992,-0.46005 -0.0374,-0.0498 -0.26669,-0.38493 -0.50948,-0.74474 l -0.44143,-0.65418 v -3.38071 -3.38071 h 0.92604 0.92604 v 2.98384 2.98383 l 0.41188,0.58804 0.41188,0.58804 h 0.62755 0.62756 l 0.41577,-0.41578 0.41578,-0.41577 v -3.17207 -3.17207 l 0.99218,0.0821 0.992191,0.0821 0.0746,2.79755 0.0746,2.79754 -0.339201,1.01364 -0.33921,1.01364 -0.66146,0.47455 -0.66146,0.47454 -0.92604,0.14306 -0.92604,0.14306 z m 43.868841,0.1289 c -0.43961,-0.10505 -1.13107,-0.4084 -1.53659,-0.67411 l -0.73731,-0.4831 -0.51393,-1.00738 -0.51392,-1.00737 v -1.23129 -1.23129 l 0.57787,-1.02818 0.57787,-1.02819 1.09316,-0.52919 1.09317,-0.52919 h 1.13721 1.13721 l 1.03058,0.57922 1.03057,0.57921 0.40551,0.61889 0.40551,0.61888 -0.14079,0.2278 c -0.0774,0.12529 -0.45094,0.30564 -0.83001,0.40078 l -0.68921,0.17297 -0.62357,-0.67284 -0.62357,-0.67284 h -1.15714 -1.15713 l -0.55568,0.59532 c -0.30562,0.32742 -0.63535,0.9164 -0.73273,1.30886 l -0.17706,0.71355 0.3187,0.9657 0.31871,0.9657 0.92448,0.38627 0.92449,0.38627 0.76311,-0.16761 0.76312,-0.16761 0.53027,-0.67412 0.53027,-0.67412 0.79587,0.32966 c 0.945,0.39143 0.96495,0.50832 0.24335,1.42569 -0.66296,0.84281 -1.63333,1.36539 -2.88706,1.55477 l -0.92604,0.13988 z m 9.2428,-0.0639 -1.08147,-0.23283 -0.82175,-0.80342 -0.82176,-0.80341 -0.31045,-0.94069 -0.31045,-0.94068 0.13407,-1.18947 0.13407,-1.18948 0.50846,-0.68103 c 0.27966,-0.37456 0.80907,-0.90546 1.17648,-1.17977 l 0.66802,-0.49875 1.08481,-0.1455 1.08481,-0.14551 0.93515,0.17544 0.93516,0.17543 0.90742,0.85581 0.90742,0.85581 0.29622,1.10007 0.29621,1.10006 -0.25195,1.12137 -0.25196,1.12137 -0.50867,0.68251 c -0.6149,0.82505 -1.75967,1.49937 -2.83461,1.66972 l -0.79375,0.12578 z m 2.99971,-2.48213 0.59532,-0.67649 v -1.1879 -1.1879 l -0.64944,-0.64946 -0.64943,-0.64944 h -0.95546 -0.95546 l -0.53417,0.28588 -0.53417,0.28588 -0.37115,0.88829 -0.37115,0.88829 0.14941,0.74406 c 0.19488,0.9705 0.6666,1.59307 1.45544,1.92086 l 0.63745,0.26489 0.79375,-0.12525 0.79375,-0.12525 z m 33.43613,2.51699 c -1.01814,-0.22845 -2.0272,-0.91556 -2.73319,-1.86116 l -0.48445,-0.64886 -0.14543,-1.31916 -0.14542,-1.31917 0.61352,-1.17513 0.61353,-1.17514 0.71663,-0.52197 0.71663,-0.52198 1.46484,-0.12148 1.46484,-0.12147 0.80602,0.33386 0.80601,0.33386 0.78085,0.94731 0.78085,0.9473 -0.59334,0.32961 c -0.32634,0.18129 -0.7548,0.33382 -0.95214,0.33898 l -0.35879,0.009 -0.52031,-0.66146 -0.5203,-0.66146 h -1.18345 -1.18345 l -0.64942,0.64944 -0.64943,0.64942 v 1.1879 1.1879 l 0.59531,0.66412 0.59532,0.66413 0.95695,0.16722 0.95697,0.16721 0.93427,-0.8203 0.93428,-0.8203 0.68844,0.26175 0.68845,0.26175 v 0.35353 c 0,0.84041 -1.7718,2.10598 -3.30729,2.36234 l -0.79375,0.13253 z m -82.84706,-4.38175 v -4.39277 l 2.24304,0.0933 2.24304,0.0933 0.68383,0.68393 0.68383,0.68392 0.022,0.77256 c 0.0121,0.4249 -0.063,1.04035 -0.16692,1.36766 l -0.18888,0.59511 -0.64102,0.33586 -0.64102,0.33587 1.18836,1.77142 c 1.43728,2.14248 1.43107,2.05263 0.14184,2.05263 h -1.04652 l -1.1003,-1.85209 c -0.60517,-1.01864 -1.2058,-1.85208 -1.33474,-1.85208 h -0.23443 v 1.85208 1.85209 h -0.92604 -0.92604 z m 3.91684,-1.7242 0.0804,-0.69302 -0.60955,-0.16326 c -0.33525,-0.0898 -0.81791,-0.16489 -1.07257,-0.16688 l -0.46302,-0.004 v 0.94202 0.94201 l 0.99219,-0.0821 0.99218,-0.0821 z m 4.02066,1.72334 v -4.39364 l 2.11242,0.0959 2.11242,0.0959 0.69216,0.69216 0.69216,0.69216 v 1.02206 1.02206 l -0.37112,0.2341 -0.37112,0.23409 0.77417,0.77417 0.77416,0.77417 -0.15598,0.97991 -0.15599,0.97991 -0.68515,0.59531 -0.68514,0.59532 h -2.3665 -2.36649 z m 4.08214,2.39036 c 0.49716,-0.49715 0.52948,-0.95218 0.0983,-1.38339 l -0.3175,-0.3175 h -1.00542 -1.00541 v 1.05833 1.05834 h 0.90714 0.90714 z m -0.23109,-3.86354 0.18255,-0.57515 -0.47987,-0.35089 c -0.26393,-0.19299 -0.75477,-0.35089 -1.09076,-0.35089 h -0.61089 v 0.92604 0.92604 h 0.90821 0.90822 z m 3.16297,5.32956 c 0.0938,-0.29549 0.79831,-2.23025 1.56561,-4.29948 l 1.39508,-3.76222 1.08106,-0.0805 1.08105,-0.0805 0.25957,0.48501 c 0.35189,0.65751 2.94944,7.73388 2.94944,8.035 v 0.24001 h -0.90891 -0.90892 l -0.33486,-0.92605 -0.33486,-0.92604 h -1.68014 -1.68014 l -0.38693,0.92604 -0.38692,0.92605 h -0.94032 -0.94032 z m 5.15812,-3.10076 c 0.0116,-1.76247 -1.16031,-2.97953 -1.5658,-1.62611 -0.17893,0.59723 -0.38911,1.25207 -0.46706,1.45521 l -0.14173,0.36933 h 1.08664 1.08664 z m 4.49661,-0.72761 v -4.36562 h 1.04153 1.04153 l 1.80274,2.89549 1.80274,2.89548 0.0748,-2.89548 0.0748,-2.89549 h 0.91738 0.91737 v 4.38083 4.38084 l -1.11732,-0.0814 -1.11732,-0.0814 -1.7931,-2.90676 -1.79309,-2.90677 v 2.97291 2.97292 h -0.92604 -0.92604 z m 28.83958,0 v -4.36562 h 1.04598 1.04598 l 0.4348,0.59531 c 0.23913,0.32743 1.07573,1.60735 1.8591,2.84427 l 1.42431,2.24896 0.005,-2.86024 0.005,-2.86024 0.99219,0.0821 0.99219,0.0821 0.0727,4.29948 0.0727,4.29948 h -1.15845 -1.1585 l -1.69232,-2.7839 -1.69232,-2.78389 -0.0751,2.78389 -0.0751,2.7839 h -1.04938 -1.04939 z m 9.84917,0.0661 0.0727,-4.29948 1.07919,-0.0791 1.07919,-0.0791 1.83123,2.97185 1.83122,2.97184 0.0748,-2.95884 0.0748,-2.95885 h 0.91737 0.91738 v 4.36563 4.36563 l -1.12448,-7.6e-4 -1.12448,-7.5e-4 -1.71979,-2.83736 -1.71979,-2.83736 -0.0751,2.83812 -0.0751,2.83811 h -1.05593 -1.05594 z m 9.99458,-0.0661 v -4.36562 h 2.51354 2.51354 v 0.92604 0.92604 h -1.5875 -1.5875 v 0.77993 0.77992 l 1.38906,0.08 1.38907,0.08 0.0829,0.8599 0.0829,0.85989 h -1.47197 -1.47197 v 0.92604 0.92605 h 1.5875 1.5875 v 0.79375 0.79375 h -2.51354 -2.51354 z m 17.1979,0.94201 v -3.4236 l -0.99218,-0.0821 -0.99219,-0.0821 -0.0829,-0.8599 -0.0829,-0.85989 h 3.05947 3.05947 v 0.92604 0.92604 h -1.05833 -1.05833 v 3.43958 3.43959 h -0.92604 -0.92605 z"
       id="path1-8"
       inkscape:export-filename="Logo_Empresa.svg"
       inkscape:export-xdpi="96"
       inkscape:export-ydpi="96"
       sodipodi:nodetypes="ssscccccccccccccccccccccccccssscccccccccccccccsscccccsscccccccccssscsccccccccsscccccccccccssccccccccccccccsscccccscccccccccccccsccccccccccccccccccssccccccccsccccsscssccccccccsccccccccccccccccccccccccccsscccccccsccssccccccsscccsscccccccccccsssscccscccccccccccccccccccccccccssccccccccccccccccccccccccccccccccccccccccccccccccccccccccccccccccccccccccccccccc" /></g></svg>
