<?xml version="1.0" encoding="UTF-8" standalone="no"?>
<!-- Created with Inkscape (http://www.inkscape.org/) -->

<svg
   width="103.1875mm"
   height="69.115097mm"
   viewBox="0 0 103.1875 69.115097"
   version="1.1"
   id="svg1"
   xml:space="preserve"
   xmlns:inkscape="http://www.inkscape.org/namespaces/inkscape"
   xmlns:sodipodi="http://sodipodi.sourceforge.net/DTD/sodipodi-0.dtd"
   xmlns="http://www.w3.org/2000/svg"
   xmlns:svg="http://www.w3.org/2000/svg"><sodipodi:namedview
     id="namedview1"
     pagecolor="#505050"
     bordercolor="#ffffff"
     borderopacity="1"
     inkscape:showpageshadow="0"
     inkscape:pageopacity="0"
     inkscape:pagecheckerboard="1"
     inkscape:deskcolor="#505050"
     inkscape:document-units="mm" /><defs
     id="defs1" /><g
     inkscape:label="Camada 1"
     inkscape:groupmode="layer"
     id="layer1"
     transform="translate(-11.323079,-154.50425)"><path
       style="fill:#000000"
       d="m 54.714747,223.00846 v -0.61089 l 0.379063,-0.51359 0.379063,-0.51359 0.245628,0.26458 0.245627,0.26459 -0.23538,0.85989 -0.235381,0.8599 h -0.38931 -0.38931 z m -32.66104,-0.7709 -0.411878,-0.58804 v -0.73487 -0.73488 h 0.511592 0.511593 l 0.08372,0.7276 0.08372,0.7276 h 0.264583 0.264584 l 0.08632,-0.9056 0.08632,-0.9056 -0.946214,-0.86685 -0.946214,-0.86684 v -1.30401 -1.30401 l 0.39769,-0.33005 0.397689,-0.33006 h 0.706156 0.706156 l 0.351363,0.48052 c 0.193249,0.26429 0.351363,0.75542 0.351363,1.09141 v 0.61089 H 24.041485 23.53072 l -0.08455,-0.59532 -0.08455,-0.59531 h -0.264584 -0.264583 l -0.08113,0.83609 -0.08113,0.83609 0.94103,0.94103 0.94103,0.94103 v 1.31284 1.31283 l -0.415774,0.41578 -0.415774,0.41577 h -0.627556 -0.627557 z m 3.743745,0.20795 -0.40882,-0.40882 -0.17225,-1.65607 c -0.09474,-0.91083 -0.134097,-2.4895 -0.08746,-3.50815 l 0.08479,-1.85208 0.595313,-0.0846 0.595312,-0.0845 v 3.45798 3.45799 h 0.236276 c 0.4383,0 0.557474,-0.82477 0.557474,-3.8581 v -3.02107 h 0.529167 0.529167 l -0.0039,3.24115 -0.0039,3.24114 -0.33296,0.66146 -0.332959,0.66146 -0.68821,0.0805 -0.688211,0.0805 z m 3.252711,-3.03785 c 0,-1.87987 0.07577,-3.6154 0.168376,-3.85673 l 0.168377,-0.43878 0.661087,-0.25135 0.661086,-0.25134 0.625745,0.41 0.625745,0.41001 v 3.69806 3.69807 h -0.529166 -0.529167 v -1.19063 -1.19062 h -0.396875 -0.396875 v 1.19062 1.19063 h -0.529167 -0.529166 z m 1.852083,-1.76348 v -2.00643 l -0.330729,0.10936 -0.330729,0.10936 -0.07774,1.89707 -0.07774,1.89706 h 0.408467 0.408466 z m 4.464168,4.74388 -0.363126,-0.43754 v -3.2534 -3.2534 l 0.264583,-0.24807 c 0.145521,-0.13644 0.526384,-0.32708 0.846362,-0.42364 l 0.581778,-0.17556 0.542701,0.5427 0.542701,0.5427 v 0.66146 0.66146 h -0.529167 -0.529167 v -0.66146 -0.66146 h -0.236275 c -0.52419,0 -0.840627,4.5105 -0.397459,5.66538 l 0.160016,0.417 0.236859,-0.14639 c 0.130273,-0.0805 0.236859,-0.43702 0.236859,-0.79223 v -0.64584 h 0.563786 0.563785 l -0.154107,0.94965 c -0.08476,0.5223 -0.293509,1.11762 -0.46389,1.32291 l -0.309784,0.37327 H 36.326204 35.72954 Z m 2.944166,-3.53121 v -3.96875 h 0.529166 0.529167 v 3.96875 3.96875 H 38.839746 38.31058 Z m 2.028472,3.79236 -0.176389,-0.17639 v -3.79236 -3.79236 h 1.184526 1.184525 l 0.432301,0.65978 0.432302,0.65977 -0.100532,2.93713 -0.100531,2.93712 -0.508532,0.37185 -0.508532,0.37185 h -0.831375 c -0.457256,0 -0.910749,-0.0794 -1.007763,-0.17639 z m 1.807986,-4.05694 v -2.73403 L 41.816309,215.748 41.48558,215.63775 v 2.95452 2.95451 l 0.330729,-0.11024 0.330729,-0.11025 z m 1.984375,0.71202 v -3.5213 l 0.351363,-0.48052 0.351363,-0.48052 h 0.752482 0.752483 l 0.351363,0.48052 0.351363,0.48052 v 3.5213 3.52131 h -0.529167 -0.529167 v -1.19063 -1.19062 h -0.396875 -0.396875 v 1.19062 1.19063 H 44.66058 44.131413 Z m 1.797529,-1.57192 -0.07774,-1.91823 h -0.264581 -0.264583 l -0.07774,1.91823 -0.07774,1.91823 h 0.420057 0.420058 z m 2.083027,4.91684 -0.176389,-0.17639 v -3.79236 -3.79236 h 1.184525 1.184526 l 0.432301,0.65978 0.432302,0.65977 -0.100532,2.93713 -0.100531,2.93712 -0.508532,0.37185 -0.508532,0.37185 h -0.831375 c -0.457256,0 -0.910749,-0.0794 -1.007763,-0.17639 z m 1.886052,-3.54907 c 0.04294,-1.22522 0.0109,-2.49556 -0.07119,-2.82298 l -0.149253,-0.59531 h -0.259543 -0.259542 v 2.93247 2.93246 l 0.330729,-0.10949 0.330729,-0.10949 z m 1.906309,-0.22808 v -3.98396 h 1.190625 1.190625 v 0.39687 0.39688 h -0.661458 -0.661459 v 1.19062 1.19063 h 0.529167 0.529167 v 0.52917 0.52916 H 53.39183 52.862663 v 1.17223 1.17222 l 0.595313,0.0846 0.595312,0.0845 v 0.52917 0.52917 l -1.124479,0.0814 -1.124479,0.0814 z m 7.14375,-0.0152 v -3.96875 h 0.518969 0.518968 l 0.2586,0.99219 c 0.14223,0.5457 0.37421,1.4089 0.5155,1.91823 l 0.2569,0.92604 0.0239,-1.91823 0.0239,-1.91823 h 0.52917 0.52917 v 3.98815 3.98815 l -0.46303,-0.0884 -0.46302,-0.0884 -0.57221,-1.71695 -0.57222,-1.71696 -0.0231,1.78594 -0.0231,1.78594 h -0.529163 -0.529167 z m 4.464167,3.53121 -0.36313,-0.43754 v -3.2534 -3.2534 l 0.26459,-0.24807 c 0.14552,-0.13644 0.53049,-0.32838 0.85549,-0.42654 l 0.5909,-0.17846 0.69391,0.69391 0.69391,0.69391 -0.0968,3.04994 -0.0968,3.04994 -0.51096,0.37362 c -0.28103,0.2055 -0.77129,0.37363 -1.08946,0.37363 h -0.57849 z m 1.506,-1.54462 c 0.20309,-1.0826 0.0547,-4.78115 -0.20212,-5.03799 l -0.17659,-0.17659 -0.28219,0.1744 -0.28219,0.1744 v 2.47629 c 0,2.49757 0.1343,3.31332 0.54549,3.31332 h 0.22429 z m 2.11462,1.39412 -0.41188,-0.58804 v -0.73487 -0.73488 h 0.4961 0.49609 l 0.16226,0.81128 0.16225,0.81129 0.2677,-0.16544 0.26769,-0.16545 v -0.85852 -0.85853 l -0.92605,-0.89755 -0.92604,-0.89755 v -0.9848 c 0,-0.54163 0.0758,-1.18224 0.16838,-1.42357 l 0.16838,-0.43878 0.66108,-0.25135 0.66109,-0.25134 0.62574,0.41 0.62575,0.41001 v 0.78765 0.78765 h -0.52917 -0.52916 v -0.68351 -0.68351 l -0.33073,0.10857 -0.33073,0.10857 -0.0834,0.84678 -0.0834,0.84678 0.94334,0.83517 0.94335,0.83518 v 1.52951 1.52951 l -0.51177,0.27389 c -0.28148,0.15064 -0.75098,0.27389 -1.04333,0.27389 h -0.53156 z m 3.57647,0.21477 c -0.17038,-0.20529 -0.37914,-0.80061 -0.46389,-1.32291 l -0.15411,-0.94965 h 0.54276 0.54276 l 0.17434,0.79375 0.17434,0.79375 h 0.24356 0.24356 v -0.96012 -0.96012 l -0.92604,-1.02502 -0.92604,-1.02502 v -1.007 -1.007 l 0.33073,-0.42073 c 0.1819,-0.2314 0.58202,-0.49504 0.88916,-0.58586 l 0.55844,-0.16513 0.55012,0.46914 0.55012,0.46915 0.0821,0.66146 0.0821,0.66145 h -0.52917 -0.52916 l -0.0845,-0.59531 c -0.0981,-0.69067 -0.44877,-0.78172 -0.6809,-0.1768 -0.30115,0.78479 -0.16076,1.16729 0.83159,2.2657 l 0.99219,1.09823 v 1.24312 1.24311 l -0.36313,0.43754 -0.36312,0.43754 h -0.72896 -0.72896 z m 3.20155,-3.31843 0.0861,-3.69169 0.26458,-0.24732 c 0.14552,-0.13602 0.51588,-0.32298 0.82302,-0.41547 l 0.55844,-0.16815 0.63089,0.51086 0.63089,0.51087 0.001,3.53015 0.001,3.53016 h -0.52916 -0.52917 l -0.0814,-1.12448 -0.0814,-1.12448 h -0.38166 -0.38166 v 1.19062 1.19063 h -0.54917 -0.54916 z m 1.80594,-1.48972 v -2.00643 l -0.33073,0.10936 -0.33073,0.10936 -0.0777,1.89707 -0.0777,1.89706 h 0.40846 0.40847 z m 4.65946,4.83866 -0.46875,-0.34276 -0.14635,-2.13524 -0.14636,-2.13525 0.17539,-1.16001 c 0.21237,-1.40467 0.38429,-1.69634 1.13859,-1.93164 l 0.58178,-0.18149 0.5427,0.5427 0.5427,0.5427 v 0.66146 0.66146 h -0.52916 -0.52917 v -0.66146 -0.66146 h -0.23372 c -0.51625,0 -0.7706,3.37891 -0.39552,5.2543 l 0.1645,0.82253 0.23237,-0.14361 c 0.1278,-0.079 0.23237,-0.43425 0.23237,-0.78946 v -0.64584 h 0.52917 0.52916 v 0.73488 0.73487 l -0.41187,0.58804 -0.41188,0.58804 h -0.4636 c -0.25497,0 -0.67453,-0.15424 -0.93235,-0.34276 z m 3.16075,-0.24528 -0.41188,-0.58804 v -2.93326 -2.93327 l 0.33073,-0.42073 c 0.1819,-0.2314 0.58202,-0.49504 0.88916,-0.58586 l 0.55844,-0.16513 0.62559,0.50657 0.6256,0.50658 0.10194,2.01869 c 0.0561,1.11028 0.0222,2.55053 -0.0753,3.20056 l -0.17723,1.18186 -0.40004,0.40003 -0.40003,0.40004 h -0.62756 -0.62755 z m 1.55426,-2.08258 0.18241,-1.61228 -0.18015,-1.44184 -0.18014,-1.44183 -0.29882,0.099 -0.29882,0.099 -0.0763,2.60555 c -0.0778,2.65572 0.007,3.30468 0.4307,3.30468 h 0.23871 z m 1.86147,2.3461 c -0.0768,-0.2 -0.10615,-1.96497 -0.0653,-3.92216 l 0.0742,-3.55853 0.532,-0.0763 0.53199,-0.0763 0.56565,2.06063 0.56566,2.06062 0.0268,-2.05052 0.0268,-2.05052 h 0.53624 0.53624 l -0.0732,3.89928 -0.0732,3.89929 -0.45684,0.0877 -0.45685,0.0877 -0.46919,-1.67185 -0.4692,-1.67186 -0.13229,1.58517 -0.13229,1.58518 -0.46382,0.088 -0.46382,0.088 z m 4.10989,-3.64423 v -3.96875 h 1.19062 1.19063 v 0.39687 0.39688 h -0.66146 -0.66146 v 1.19062 1.19063 h 0.52917 0.52916 v 0.52917 0.52916 h -0.52916 -0.52917 v 1.17223 1.17222 l 0.59531,0.0846 0.59531,0.0845 0.0845,0.59532 0.0846,0.59531 h -1.20903 -1.20902 z m 2.64583,3.6924 c 0,-0.152 0.1982,-1.06539 0.44044,-2.02975 l 0.44044,-1.7534 -0.32093,-1.5538 c -0.17652,-0.85459 -0.38745,-1.72714 -0.46875,-1.939 l -0.14781,-0.3852 h 0.68976 0.68977 l 0.0334,0.99219 0.0334,0.99218 0.27781,-0.99218 0.27781,-0.99219 h 0.4825 0.48251 l -0.003,0.33073 c -0.002,0.1819 -0.17465,0.97513 -0.38426,1.76274 l -0.38112,1.43201 0.48741,2.09321 0.4874,2.0932 -0.35506,0.13625 c -0.57575,0.22094 -0.82813,-0.0944 -1.0354,-1.29384 -0.20845,-1.20625 -0.26594,-1.16351 -0.52595,0.39101 l -0.16594,0.99219 h -0.51718 -0.51718 z m 3.70417,-3.24496 v -3.5213 l 0.35136,-0.48052 0.35136,-0.48052 h 0.75249 0.75248 l 0.35136,0.48052 0.351363,0.48052 v 3.5213 3.52131 h -0.529163 -0.52917 v -1.19063 -1.19062 h -0.39687 -0.39688 v 1.19062 1.19063 h -0.52917 -0.52916 z m 1.79753,-1.57192 -0.0777,-1.91823 h -0.26458 -0.26459 l -0.0777,1.91823 -0.0777,1.91823 h 0.42006 0.42005 z m 2.567853,4.7289 -0.52892,-0.38676 v -3.31539 -3.3154 l 0.3219,-0.3219 0.32191,-0.32191 h 0.81139 0.81138 l 0.32191,0.3212 0.32191,0.3212 0.074,2.96404 0.074,2.96404 -0.34469,0.66146 -0.3447,0.66146 -0.65556,0.0774 -0.65556,0.0774 z m 1.29484,-1.11252 c 0.0883,-0.23018 0.15878,-1.45057 0.15655,-2.71198 l -0.004,-2.29346 -0.26053,-0.39688 -0.26053,-0.39687 -0.26053,0.39687 -0.26053,0.39688 -4.4e-4,2.11666 c -5.9e-4,2.85801 0.40132,4.16244 0.89006,2.88878 z m -5.131063,-7.40125 c 0,-0.17914 0.17478,-0.39277 0.38841,-0.47475 l 0.3884,-0.14904 0.16432,0.26588 0.16432,0.26587 0.37332,-0.30983 0.37332,-0.30982 v 0.5535 0.55351 l -0.92604,-0.0348 -0.92605,-0.0348 z m -84.487905,-6.57859 c -0.556531,-0.20322 -1.042496,-0.41024 -1.079922,-0.46005 -0.03743,-0.0498 -0.266691,-0.38493 -0.509479,-0.74474 l -0.441432,-0.65418 v -3.38071 -3.38071 h 0.926041 0.926042 v 2.98384 2.98383 l 0.411878,0.58804 0.411878,0.58804 h 0.627557 0.627556 l 0.415774,-0.41578 0.415774,-0.41577 v -3.17207 -3.17207 l 0.992187,0.0821 0.992188,0.0821 0.07462,2.79755 0.07462,2.79754 -0.339206,1.01364 -0.339207,1.01364 -0.661458,0.47455 -0.661458,0.47454 -0.926042,0.14306 -0.926042,0.14306 z m 43.868841,0.1289 c -0.439607,-0.10505 -1.131075,-0.4084 -1.536596,-0.67411 l -0.73731,-0.4831 -0.513925,-1.00738 -0.513925,-1.00737 v -1.23129 -1.23129 l 0.577874,-1.02818 0.577874,-1.02819 1.093161,-0.52919 1.093162,-0.52919 h 1.137211 1.137211 l 1.030577,0.57922 1.03057,0.57921 0.40551,0.61889 0.40551,0.61888 -0.14079,0.2278 c -0.0774,0.12529 -0.45094,0.30564 -0.83001,0.40078 l -0.68921,0.17297 -0.62357,-0.67284 -0.623563,-0.67284 h -1.157138 -1.157138 l -0.555674,0.59532 c -0.30562,0.32742 -0.635351,0.9164 -0.732735,1.30886 l -0.177062,0.71355 0.318709,0.9657 0.31871,0.9657 0.92448,0.38627 0.924481,0.38627 0.763117,-0.16761 0.763118,-0.16761 0.530265,-0.67412 0.53027,-0.67412 0.79587,0.32966 c 0.945,0.39143 0.96495,0.50832 0.24335,1.42569 -0.66296,0.84281 -1.63333,1.36539 -2.887057,1.55477 l -0.926042,0.13988 z m 9.242794,-0.0639 -1.08147,-0.23283 -0.82175,-0.80342 -0.82176,-0.80341 -0.31045,-0.94069 -0.31045,-0.94068 0.13407,-1.18947 0.13407,-1.18948 0.50846,-0.68103 c 0.27966,-0.37456 0.80907,-0.90546 1.17648,-1.17977 l 0.66802,-0.49875 1.08481,-0.1455 1.08481,-0.14551 0.93515,0.17544 0.93516,0.17543 0.90742,0.85581 0.90742,0.85581 0.29622,1.10007 0.29621,1.10006 -0.25195,1.12137 -0.25196,1.12137 -0.50867,0.68251 c -0.6149,0.82505 -1.75967,1.49937 -2.83461,1.66972 l -0.79375,0.12578 z m 2.99971,-2.48213 0.59532,-0.67649 v -1.1879 -1.1879 l -0.64944,-0.64946 -0.64943,-0.64944 h -0.95546 -0.95546 l -0.53417,0.28588 -0.53417,0.28588 -0.37115,0.88829 -0.37115,0.88829 0.14941,0.74406 c 0.19488,0.9705 0.6666,1.59307 1.45544,1.92086 l 0.63745,0.26489 0.79375,-0.12525 0.79375,-0.12525 z m 33.436133,2.51699 c -1.01814,-0.22845 -2.0272,-0.91556 -2.73319,-1.86116 l -0.484453,-0.64886 -0.14543,-1.31916 -0.14542,-1.31917 0.613523,-1.17513 0.61353,-1.17514 0.71663,-0.52197 0.71663,-0.52198 1.46484,-0.12148 1.46484,-0.12147 0.80602,0.33386 0.80601,0.33386 0.78085,0.94731 0.78085,0.9473 -0.59334,0.32961 c -0.32634,0.18129 -0.7548,0.33382 -0.95214,0.33898 l -0.35879,0.009 -0.52031,-0.66146 -0.5203,-0.66146 h -1.18345 -1.18345 l -0.64942,0.64944 -0.64943,0.64942 v 1.1879 1.1879 l 0.59531,0.66412 0.59532,0.66413 0.95695,0.16722 0.95697,0.16721 0.93427,-0.8203 0.93428,-0.8203 0.68844,0.26175 0.68845,0.26175 v 0.35353 c 0,0.84041 -1.7718,2.10598 -3.30729,2.36234 l -0.79375,0.13253 z m -82.847061,-4.38175 v -4.39277 l 2.243042,0.0933 2.243042,0.0933 0.683829,0.68393 0.683829,0.68392 0.02197,0.77256 c 0.01208,0.4249 -0.06303,1.04035 -0.166916,1.36766 l -0.18888,0.59511 -0.641021,0.33586 -0.641021,0.33587 1.188357,1.77142 c 1.437278,2.14248 1.431069,2.05263 0.141839,2.05263 h -1.046518 l -1.100302,-1.85209 c -0.605167,-1.01864 -1.205796,-1.85208 -1.334733,-1.85208 h -0.23443 v 1.85208 1.85209 h -0.926041 -0.926042 z m 3.916842,-1.7242 0.08038,-0.69302 -0.60955,-0.16326 c -0.335253,-0.0898 -0.817909,-0.16489 -1.072571,-0.16688 l -0.463021,-0.004 v 0.94202 0.94201 l 0.992188,-0.0821 0.992187,-0.0821 z m 4.020658,1.72334 v -4.39364 l 2.112423,0.0959 2.112422,0.0959 0.692161,0.69216 0.692161,0.69216 v 1.02206 1.02206 l -0.371122,0.2341 -0.371122,0.23409 0.774165,0.77417 0.774166,0.77417 -0.155986,0.97991 -0.155986,0.97991 -0.685145,0.59531 -0.685145,0.59532 h -2.366496 -2.366496 z m 4.082143,2.39036 c 0.497156,-0.49715 0.529481,-0.95218 0.09827,-1.38339 l -0.3175,-0.3175 h -1.005417 -1.005416 v 1.05833 1.05834 h 0.907142 0.907143 z m -0.231089,-3.86354 0.182546,-0.57515 -0.479869,-0.35089 c -0.263929,-0.19299 -0.75477,-0.35089 -1.090759,-0.35089 h -0.610888 v 0.92604 0.92604 h 0.908212 0.908212 z m 3.162972,5.32956 c 0.09379,-0.29549 0.798307,-2.23025 1.565603,-4.29948 l 1.395086,-3.76222 1.081053,-0.0805 1.081054,-0.0805 0.259569,0.48501 c 0.35189,0.65751 2.949443,7.73388 2.949443,8.035 v 0.24001 h -0.908916 -0.908915 l -0.334861,-0.92605 -0.334862,-0.92604 h -1.68014 -1.680141 l -0.386925,0.92604 -0.386925,0.92605 h -0.940321 -0.94032 z m 5.158117,-3.10076 c 0.01162,-1.76247 -1.160306,-2.97953 -1.565801,-1.62611 -0.178934,0.59723 -0.389112,1.25207 -0.467062,1.45521 l -0.141728,0.36933 h 1.086641 1.086641 z m 4.496608,-0.72761 v -4.36562 h 1.04153 1.041531 l 1.80274,2.89549 1.802741,2.89548 0.07481,-2.89548 0.07481,-2.89549 h 0.917376 0.917377 v 4.38083 4.38084 l -1.117323,-0.0814 -1.117322,-0.0814 -1.793094,-2.90676 -1.793095,-2.90677 v 2.97291 2.97292 h -0.926042 -0.926041 z m 28.839577,0 v -4.36562 h 1.04598 1.04598 l 0.4348,0.59531 c 0.23913,0.32743 1.07573,1.60735 1.8591,2.84427 l 1.42431,2.24896 0.005,-2.86024 0.005,-2.86024 0.99219,0.0821 0.99219,0.0821 0.0727,4.29948 0.0727,4.29948 h -1.15845 -1.1585 l -1.69232,-2.7839 -1.69232,-2.78389 -0.0751,2.78389 -0.0751,2.7839 h -1.04938 -1.04939 z m 9.84917,0.0661 0.0727,-4.29948 1.07919,-0.0791 1.07919,-0.0791 1.83123,2.97185 1.83122,2.97184 0.0748,-2.95884 0.0748,-2.95885 h 0.91737 0.91738 v 4.36563 4.36563 l -1.12448,-7.6e-4 -1.12448,-7.5e-4 -1.71979,-2.83736 -1.71979,-2.83736 -0.0751,2.83812 -0.0751,2.83811 h -1.05593 -1.05594 z m 9.99458,-0.0661 v -4.36562 h 2.51354 2.51354 v 0.92604 0.92604 h -1.5875 -1.5875 v 0.77993 0.77992 l 1.38906,0.08 1.38907,0.08 0.0829,0.8599 0.0829,0.85989 h -1.47197 -1.47197 v 0.92604 0.92605 h 1.5875 1.5875 v 0.79375 0.79375 h -2.51354 -2.51354 z m 17.197903,0.94201 v -3.4236 l -0.99218,-0.0821 -0.99219,-0.0821 -0.0829,-0.8599 -0.0829,-0.85989 h 3.05947 3.05947 v 0.92604 0.92604 h -1.05833 -1.05833 v 3.43958 3.43959 h -0.92604 -0.92605 z M 42.598469,192.61183 c -0.407858,-0.40786 -0.408597,-1.07635 -0.0016,-1.48331 l 0.3175,-0.3175 h 3.915833 3.915834 v -5.23873 -5.23873 l -1.566694,-0.32359 -1.566694,-0.3236 -1.268777,-0.85382 -1.268777,-0.85382 -0.861507,-1.13562 -0.861506,-1.13562 -0.536356,-1.73652 -0.536356,-1.73652 v -2.73296 -2.73296 l 0.386828,-1.83891 c 0.680917,-3.23697 2.193711,-6.27757 4.033311,-8.10665 l 1.003819,-0.99807 1.410975,-0.66033 1.410975,-0.66032 1.631733,0.11021 1.631734,0.11022 1.058333,0.50688 1.058334,0.50688 1.237288,1.23233 1.237289,1.23234 0.964086,1.91442 0.964083,1.91442 0.52938,2.02026 0.52936,2.02027 0.0393,3.04271 0.0393,3.04271 -0.47288,1.5875 -0.47289,1.5875 -0.906705,1.38292 -0.906709,1.38293 -1.390433,0.79718 -1.390433,0.79718 -1.521354,0.30171 -1.521355,0.30171 v 5.25725 5.25724 h 2.38125 2.38125 v -3.55298 -3.55297 l 0.415774,-0.41578 c 0.491884,-0.49188 0.52725,-0.4961 1.189121,-0.14188 l 0.511772,0.2739 v 2.23965 2.23964 h 0.676462 0.67646 l -0.41188,-0.58803 -0.41187,-0.58804 v -2.55765 -2.55765 l 0.47944,-0.59209 0.47944,-0.59209 0.55032,0.17466 0.55032,0.17467 0.15725,0.58655 c 0.0865,0.3226 0.15887,1.66139 0.16086,2.97507 l 0.004,2.38853 -0.41188,0.58804 -0.41188,0.58803 1.27178,-0.008 1.27177,-0.008 -0.46302,-0.26968 -0.46302,-0.26969 v -3.10893 -3.10894 l 0.3175,-0.3175 c 0.43121,-0.4312 0.88624,-0.39888 1.38339,0.0983 l 0.41578,0.41578 v 2.87261 2.87262 l -0.41578,0.41578 -0.41577,0.41577 h 1.13015 1.13014 l -0.3175,-0.3175 -0.3175,-0.3175 v -3.06917 -3.06916 l 0.3175,-0.3175 c 0.43121,-0.43121 0.88624,-0.39888 1.38339,0.0983 l 0.41578,0.41577 v 2.87262 2.87262 l -0.41578,0.41577 -0.41577,0.41578 1.27567,-0.008 1.27567,-0.008 -0.46302,-0.26969 -0.46302,-0.26968 v -3.109 -3.10894 l 0.3175,-0.3175 c 0.4312,-0.4312 0.88624,-0.39888 1.38339,0.0983 l 0.41577,0.41578 v 2.87262 2.87262 l -0.41577,0.41577 -0.41577,0.41577 h 0.68035 0.68036 v -1.95506 -1.95506 l 0.51259,-0.62463 0.51259,-0.62462 0.4796,0.29299 0.4796,0.29299 0.0734,3.7419 0.0734,3.74191 h 1.1768 1.17681 l 0.0727,-4.29948 0.0727,-4.29948 0.59531,-0.26118 0.59531,-0.26117 v -5.62597 -5.62581 h -0.35586 c -0.19573,0 -0.53923,-0.20836 -0.76334,-0.46302 l -0.40748,-0.46302 -0.18652,-2.31599 -0.18653,-2.316 -0.23529,0.14542 -0.23529,0.14542 -0.53463,-0.28613 -0.53464,-0.28613 v -0.50096 c 0,-0.27552 0.16854,-0.66949 0.37452,-0.87548 l 0.37453,-0.37452 1.98596,-0.33971 1.98597,-0.33971 1.8067,0.33234 1.8067,0.33234 0.46302,0.404 c 0.57764,0.50401 0.58718,0.95378 0.032,1.50893 l -0.43099,0.43099 -0.33614,-0.12899 -0.33614,-0.12899 -0.18779,2.37271 -0.18779,2.37271 -0.3869,0.3869 c -0.21279,0.21279 -0.55698,0.38689 -0.76487,0.38689 h -0.37798 v 5.68855 5.68854 h 0.38757 0.38757 l 0.27389,0.51177 0.27389,0.51177 v 3.96938 3.96938 l 0.83321,0.0829 0.83322,0.0829 0.28991,0.46302 0.28991,0.46303 -0.29204,0.46302 -0.29205,0.46302 -20.0911,0.0678 -20.091108,0.0678 z m 29.314188,-2.19768 v -0.39688 h -6.08541 -6.085417 v 0.39688 0.39687 h 6.085417 6.08541 z m 7.40833,-3.04271 v -3.43959 h -0.39687 -0.39688 v 3.43959 3.43958 h 0.39688 0.39687 z m -28.57499,-12.36263 v -3.10222 l -1.754605,-1.76815 -1.754605,-1.76815 0.172146,-0.68589 0.172145,-0.68588 h 0.579116 0.579116 l 1.003344,0.97974 1.003343,0.97974 v -2.64662 -2.64661 l 0.3175,-0.3175 c 0.174625,-0.17462 0.578605,-0.3175 0.897734,-0.3175 h 0.580234 l 0.160599,0.41852 c 0.08833,0.23018 0.160599,2.50753 0.160599,5.06078 v 4.64226 l 1.184714,-1.09203 c 1.525323,-1.40599 2.519453,-1.36951 2.519453,0.0925 v 0.54949 l -1.852083,1.83789 -1.852084,1.8379 v 0.86699 0.86699 h 0.216561 c 0.119109,0 0.835162,-0.1837 1.591229,-0.40823 l 1.374668,-0.40824 0.894636,-0.7855 0.894637,-0.7855 0.520548,-1.12137 c 0.706502,-1.52195 0.91031,-2.80735 0.890975,-5.61929 l -0.01637,-2.38125 -0.519578,-2.02234 -0.519577,-2.02235 -0.787089,-1.55922 -0.78709,-1.55922 -1.17143,-1.07978 -1.171431,-1.07979 -1.000774,-0.33028 -1.000775,-0.33029 -1.020051,0.13682 -1.02005,0.13682 -0.954797,0.59009 -0.954797,0.5901 -1.017796,1.28761 -1.017796,1.28761 -0.572876,1.5219 c -0.315082,0.83705 -0.73838,2.29581 -0.940664,3.2417 l -0.367788,1.71979 -0.0046,2.26708 -0.0046,2.26709 0.422102,1.43708 c 0.893908,3.04339 2.830257,4.7302 5.729461,4.9911 l 0.198438,0.0179 z m 28.9613,-8.39966 0.18337,-1.71228 -0.16816,-0.27209 -0.16816,-0.27209 h -0.63023 -0.63023 l -0.17648,0.28555 -0.17649,0.28556 0.18193,1.69882 0.18193,1.69882 h 0.60957 0.60958 z"
       id="path1"
       inkscape:export-filename="Logo_Empresa.svg"
       inkscape:export-xdpi="96"
       inkscape:export-ydpi="96" /></g></svg>
