<?xml version="1.0" encoding="UTF-8" standalone="no"?>
<!-- Created with Inkscape (http://www.inkscape.org/) -->

<svg
   width="180.21306mm"
   height="180.31149mm"
   viewBox="0 0 180.21306 180.31149"
   version="1.1"
   id="svg1"
   xml:space="preserve"
   xmlns:inkscape="http://www.inkscape.org/namespaces/inkscape"
   xmlns:sodipodi="http://sodipodi.sourceforge.net/DTD/sodipodi-0.dtd"
   xmlns="http://www.w3.org/2000/svg"
   xmlns:svg="http://www.w3.org/2000/svg"><sodipodi:namedview
     id="namedview1"
     pagecolor="#505050"
     bordercolor="#ffffff"
     borderopacity="1"
     inkscape:showpageshadow="0"
     inkscape:pageopacity="0"
     inkscape:pagecheckerboard="1"
     inkscape:deskcolor="#505050"
     inkscape:document-units="mm" /><defs
     id="defs1" /><g
     inkscape:label="Camada 1"
     inkscape:groupmode="layer"
     id="layer1"
     transform="translate(-19.303099,-51.80765)"><path
       style="fill:#101229;fill-opacity:1"
       d="m 102.88505,232.02239 c -13.907383,-1.43105 -24.308793,-4.42749 -35.342383,-10.18142 -8.56698,-4.46761 -15.64473,-9.75135 -22.5281,-16.81783 -13.82895,-14.19685 -22.03894,-30.88153 -25.0938,-50.99667 -0.728,-4.79359 -0.83958,-18.25756 -0.18947,-22.86183 2.90592,-20.58064 11.05837,-37.699813 24.58956,-51.635193 9.64407,-9.93214 19.61144,-16.63072 32.10586,-21.57676 10.91245,-4.319804 20.70976,-6.145037 32.984733,-6.145037 9.68139,0 17.80602,1.131925 25.44459,3.544947 3.65823,1.15564 4.6839,2.30004 4.4618,4.97831 -0.18106,2.18327 -1.14209,3.44672 -3.01511,3.96388 -0.96982,0.26778 -2.11851,0.10118 -5.84703,-0.84807 -7.82953,-1.99333 -10.69666,-2.37777 -19.10398,-2.56158 -8.78734,-0.19211 -13.575473,0.26961 -20.801533,2.00588 -6.16985,1.48249 -10.94586,3.22101 -17.02592,6.19763 -22.27447,10.90494 -37.96612,30.89255 -43.61962,55.561543 -1.18553,5.17307 -1.74736,10.74968 -1.74034,17.27417 0.0126,11.69466 2.09443,21.8652 6.61349,32.30924 9.00402,20.80923 25.79977,36.46245 47.67489,44.43178 13.06016,4.75795 28.876833,5.83756 43.186533,2.94779 24.60476,-4.96879 45.52644,-21.17964 56.63379,-43.88187 5.73921,-11.73032 8.269,-22.47779 8.30382,-35.27777 0.0236,-8.67276 -0.62843,-13.73666 -2.87006,-22.28992 -1.2249,-4.67377 -1.03007,-6.01813 1.07968,-7.45015 1.59815,-1.08477 4.16088,-0.9449 5.48536,0.29939 1.46518,1.37645 3.33643,8.31123 4.61244,17.09345 0.75779,5.21556 0.85495,17.46486 0.17768,22.40139 -1.63552,11.92117 -4.59353,21.42845 -9.73387,31.28544 -4.50626,8.64108 -9.68412,15.57659 -16.81887,22.5281 -14.15556,13.79201 -31.11448,22.15131 -50.81983,25.04983 -3.51624,0.51721 -15.92928,0.94717 -18.80431,0.65133 z m 1.47059,-27.68836 c -23.188143,-1.9124 -43.796313,-16.96248 -52.755263,-38.527 -12.92543,-31.11196 0.99241,-66.965953 31.53534,-81.238743 8.16787,-3.81687 15.27882,-5.45333 24.688233,-5.68157 5.63359,-0.13665 6.4885,-0.0819 7.57769,0.48555 3.23861,1.68721 3.74431,5.58754 0.98959,7.63255 -0.86365,0.64114 -1.55661,0.71769 -7.05556,0.77938 -4.64966,0.0522 -6.99978,0.25073 -9.895663,0.83612 -9.53673,1.92782 -18.10372,6.15711 -25.40878,12.543643 -8.64872,7.56123 -14.66633,17.89363 -17.21145,29.5525 -0.94112,4.31118 -1.27664,12.76363 -0.69168,17.42523 2.71299,21.6202 17.87973,39.33551 38.88897,45.42375 9.282503,2.68997 20.506213,2.62635 30.010493,-0.17008 4.28487,-1.26074 11.12652,-4.47369 14.76247,-6.9327 11.88062,-8.03493 20.05827,-20.36584 22.92417,-34.56687 0.58712,-2.90926 0.78427,-5.26949 0.84265,-10.08796 l 0.0762,-6.29014 1.05426,-1.05426 c 2.70367,-2.70366 7.0223,-1.36393 7.72793,2.39736 0.5067,2.70097 -0.11739,13.17141 -1.04091,17.46338 -5.98405,27.81035 -28.86836,47.88809 -57.02402,50.03053 -5.17999,0.39416 -4.95932,0.39462 -9.99469,-0.0207 z m -0.93575,-27.32039 c -7.242893,-1.3102 -13.839733,-4.77249 -19.082483,-10.01525 -11.11765,-11.11765 -13.70746,-27.93045 -6.47121,-42.01051 5.65435,-11.00205 16.95508,-18.37447 29.462353,-19.22078 2.95114,-0.19969 3.44215,-0.14589 4.44498,0.48704 1.57243,0.99244 2.31054,2.26727 2.28731,3.95052 -0.0417,3.02329 -1.60319,4.1535 -6.30914,4.56666 -11.799663,1.03596 -21.145203,8.79222 -24.157853,20.04963 -1.04891,3.91947 -1.04179,9.85381 0.0164,13.6298 2.69373,9.61258 9.66227,16.58112 19.274853,19.27485 3.77599,1.05814 9.71033,1.06526 13.6298,0.0163 11.2574,-3.01265 19.01366,-12.35818 20.04962,-24.15784 0.41316,-4.70595 1.54338,-6.26742 4.56667,-6.30914 1.68325,-0.0232 2.95808,0.71488 3.95051,2.28731 0.63294,1.00283 0.68674,1.49383 0.48705,4.44497 -1.1219,16.5801 -13.35608,30.1561 -29.76528,33.02987 -3.59683,0.62991 -8.82637,0.62 -12.38354,-0.0235 z m 3.98021,-31.54722 c -1.55162,-0.94608 -2.34751,-2.59332 -2.10968,-4.36641 0.17643,-1.31544 1.2846,-2.5101 15.73736,-16.96559 l 15.54755,-15.5505 0.002,-8.11242 c 0.001,-4.461833 0.15666,-8.668053 0.34572,-9.347143 0.26722,-0.95983 3.58741,-4.4746 14.91279,-15.78681 l 14.56903,-14.55208 h 1.50693 c 1.76908,0 3.38512,0.74618 4.01908,1.85573 0.31091,0.54416 0.50633,3.15104 0.62782,8.37482 l 0.17639,7.58473 7.58472,0.17639 c 8.18013,0.19023 8.77174,0.31893 9.69774,2.1096 0.96307,1.86238 0.69619,3.62099 -0.83946,5.53163 -0.75475,0.93906 -7.22382,7.5263 -14.3757,14.638313 -10.93648,10.87553 -13.22771,12.99205 -14.41453,13.3154 -0.81657,0.22247 -4.75536,0.38895 -9.34861,0.39512 l -7.9375,0.0107 -15.41403,15.33826 c -8.47771,8.43605 -15.83024,15.49651 -16.33893,15.68991 -1.40364,0.53366 -2.69918,0.42223 -3.94866,-0.33962 z m 58.89417,-48.606783 c 4.80361,-4.80073 8.73384,-8.84885 8.73384,-8.99583 0,-0.14698 -1.75413,-0.26723 -3.89807,-0.26723 -6.41567,0 -7.38739,-0.96259 -7.3895,-7.32014 -7.2e-4,-2.18281 -0.11921,-3.96875 -0.2633,-3.96875 -0.1441,0 -4.19222,3.92787 -8.99584,8.7286 l -8.73384,8.72861 v 5.91167 5.911683 h 5.90643 5.90643 z"
       id="path1" /></g></svg>
