<?xml version="1.0" encoding="UTF-8" standalone="no"?>
<!-- Created with Inkscape (http://www.inkscape.org/) -->

<svg
   width="129.49442mm"
   height="135.29366mm"
   viewBox="0 0 129.49442 135.29366"
   version="1.1"
   id="svg1"
   xml:space="preserve"
   xmlns:inkscape="http://www.inkscape.org/namespaces/inkscape"
   xmlns:sodipodi="http://sodipodi.sourceforge.net/DTD/sodipodi-0.dtd"
   xmlns="http://www.w3.org/2000/svg"
   xmlns:svg="http://www.w3.org/2000/svg"><sodipodi:namedview
     id="namedview1"
     pagecolor="#505050"
     bordercolor="#ffffff"
     borderopacity="1"
     inkscape:showpageshadow="0"
     inkscape:pageopacity="0"
     inkscape:pagecheckerboard="1"
     inkscape:deskcolor="#505050"
     inkscape:document-units="mm" /><defs
     id="defs1" /><g
     inkscape:label="Camada 1"
     inkscape:groupmode="layer"
     id="layer1"
     transform="translate(-43.202996,-47.198542)"><path
       style="fill:#101229;fill-opacity:1"
       d="m 75.406462,150.66474 c -13.46068,-17.39114 -24.51397,-31.72228 -24.56288,-31.84699 -0.0489,-0.12483 6.77735,-0.19605 15.18664,-0.15845 l 15.27556,0.0683 9.35686,31.72455 c 5.14628,17.4485 9.32557,31.74891 9.28732,31.77869 -0.0383,0.0298 -11.08283,-14.17497 -24.5435,-31.56611 z m 40.576548,31.16599 c 0.0929,-0.3638 4.31844,-14.71083 9.39,-31.88229 l 9.22103,-31.22083 15.25308,-0.0683 c 8.38919,-0.0376 15.25308,-0.01 15.25308,0.0617 0,0.0981 -46.03153,59.67571 -48.76051,63.10972 l -0.52565,0.66145 z m -17.137648,-31.9521 c -4.93491,-16.84202 -9.02554,-30.77068 -9.09029,-30.95258 -0.0935,-0.26254 3.65844,-0.33073 18.195128,-0.33073 14.53666,0 18.2886,0.0682 18.19521,0.33073 -0.0647,0.1819 -4.15535,14.11041 -9.09029,30.95226 -4.93494,16.84184 -9.03216,30.62167 -9.10492,30.62185 -0.0728,1.7e-4 -4.16994,-13.77952 -9.104838,-30.62153 z m -42.04936,-49.0104 c 3.58916,-5.384267 6.60605,-9.789579 6.70421,-9.789579 0.0981,0 3.11504,4.405312 6.7042,9.789579 l 6.52574,9.78959 h -13.22994 -13.22995 z m 43.11606,-0.66145 c 4.311588,-5.748077 7.928758,-10.451045 8.038138,-10.451045 0.10939,0 3.72655,4.702968 8.03815,10.451045 l 7.83926,10.45104 H 107.9502 92.072802 Z m 45.783938,0.66145 c 3.58916,-5.384267 6.60605,-9.789579 6.7042,-9.789579 0.0981,0 3.11505,4.405312 6.7042,9.789579 l 6.52574,9.78959 H 152.4002 139.17026 Z M 77.324342,97.278477 70.378682,86.845318 h 14.8197 14.819698 L 92.441252,96.96563 c -4.16726,5.56617 -7.71058,10.26109 -7.87404,10.43316 -0.22368,0.23545 -2.01558,-2.26834 -7.24287,-10.120313 z m 46.405038,0.02431 -7.84408,-10.457468 h 14.81955 14.81955 l -6.91669,10.384895 c -3.80418,5.711696 -6.94314,10.417556 -6.97547,10.457466 -0.0323,0.0399 -3.58862,-4.63329 -7.90286,-10.384893 z M 51.633022,88.248562 c -0.1968,-0.07836 -1.92321,-1.446296 -3.83646,-3.039849 -4.00677,-3.337242 -4.84167,-4.497452 -4.53645,-6.304028 0.38928,-2.304116 2.77015,-3.839525 4.94386,-3.188265 1.16777,0.349871 7.6814,5.750626 8.44411,7.001402 1.03601,1.698966 0.38406,4.09116 -1.41368,5.18726 -0.82518,0.503114 -2.7415,0.685883 -3.60138,0.34348 z m 109.032988,-0.34348 c -1.79775,-1.0961 -2.44969,-3.488294 -1.41368,-5.18726 0.76271,-1.250776 7.27634,-6.651531 8.44411,-7.001402 2.17371,-0.65126 4.55458,0.884149 4.94386,3.188265 0.30529,1.807004 -0.53144,2.974343 -4.5075,6.288508 -1.89734,1.581483 -3.66325,2.95737 -3.92425,3.057525 -0.91852,0.352471 -2.67932,0.180675 -3.54254,-0.345636 z M 75.803332,69.160125 c -0.43656,-0.266915 -0.93443,-0.65581 -1.10638,-0.864212 -0.43807,-0.530938 -3.93605,-8.146756 -4.15364,-9.043319 -0.4504,-1.855792 1.16423,-4.20032 3.14911,-4.572686 1.22757,-0.230292 3.12714,0.484461 3.79568,1.428205 0.83174,1.174112 4.26836,8.905426 4.26836,9.602467 0,1.143707 -1.11466,2.972831 -2.11667,3.47339 -1.19877,0.598854 -2.83461,0.588687 -3.83646,-0.02385 z m 60.243468,-0.04834 c -0.92032,-0.561102 -1.88693,-2.29929 -1.89704,-3.411283 -0.006,-0.685253 3.42885,-8.415514 4.26254,-9.592384 0.66855,-0.943744 2.56812,-1.658497 3.79569,-1.428205 1.98488,0.372366 3.5995,2.716894 3.14911,4.572686 -0.26617,1.096708 -3.77492,8.597888 -4.28709,9.165125 -1.17926,1.306078 -3.49466,1.625998 -5.02321,0.694061 z m -29.83657,-6.613246 c -0.67125,-0.332268 -1.2957,-0.920289 -1.65365,-1.55717 -0.53198,-0.946542 -0.57513,-1.385063 -0.57513,-5.846044 0,-5.499389 0.23534,-6.319173 2.11774,-7.377143 1.97025,-1.107342 4.28427,-0.390191 5.26271,1.630996 0.5008,1.034511 0.55705,1.614794 0.55705,5.746147 0,4.099363 -0.0588,4.716974 -0.54507,5.721394 -0.39574,0.817487 -0.85354,1.275296 -1.67103,1.671035 -1.41076,0.682935 -2.13026,0.685157 -3.49262,0.01078 z"
       id="path1" /></g></svg>
