<?xml version="1.0" encoding="UTF-8" standalone="no"?>
<!-- Created with Inkscape (http://www.inkscape.org/) -->

<svg
   width="144.48325mm"
   height="91.996452mm"
   viewBox="0 0 144.48325 91.996452"
   version="1.1"
   id="svg1"
   xml:space="preserve"
   xmlns:inkscape="http://www.inkscape.org/namespaces/inkscape"
   xmlns:sodipodi="http://sodipodi.sourceforge.net/DTD/sodipodi-0.dtd"
   xmlns="http://www.w3.org/2000/svg"
   xmlns:svg="http://www.w3.org/2000/svg"><sodipodi:namedview
     id="namedview1"
     pagecolor="#505050"
     bordercolor="#ffffff"
     borderopacity="1"
     inkscape:showpageshadow="0"
     inkscape:pageopacity="0"
     inkscape:pagecheckerboard="1"
     inkscape:deskcolor="#505050"
     inkscape:document-units="mm" /><defs
     id="defs1" /><g
     inkscape:label="Camada 1"
     inkscape:groupmode="layer"
     id="layer1"
     transform="translate(-33.516675,-112.74212)"><path
       style="fill:#101229;fill-opacity:1"
       d="m 99.549411,204.4198 c -20.500056,-2.30483 -43.138126,-16.46881 -61.613356,-38.54969 -3.15551,-3.77134 -4.41938,-5.81364 -4.41938,-7.14133 0,-1.32769 1.26387,-3.36999 4.41938,-7.14133 9.27341,-11.08323 20.41155,-20.86566 31.27447,-27.46784 24.960024,-15.16999 48.135525,-15.16999 73.095555,0 10.82052,6.57641 22.03119,16.4203 31.25489,27.44436 3.17363,3.79308 4.43895,5.83541 4.43895,7.16481 0,1.3294 -1.26532,3.37173 -4.43895,7.16482 -13.01144,15.55112 -28.96841,27.842 -44.12598,33.98809 -9.83985,3.98985 -20.44224,5.59982 -29.885579,4.53811 z m 13.123329,-9.71277 c 14.29005,-2.15238 29.4909,-10.68789 44.00056,-24.70699 3.84745,-3.71738 10.32722,-10.78982 10.32722,-11.2718 0,-0.38441 -3.86715,-4.70792 -8.03602,-8.98434 -12.5459,-12.86961 -27.18937,-22.225 -40.23525,-25.70543 -4.60483,-1.2285 -8.27368,-1.71303 -12.97095,-1.71303 -8.240669,0 -15.689956,1.8412 -24.412225,6.03383 -9.59981,4.61446 -18.59368,11.24475 -27.96007,20.61222 -4.95954,4.96011 -8.86993,9.26355 -8.86993,9.76149 0,0.35712 3.74571,4.56893 7.61514,8.56274 10.48068,10.81756 23.01015,19.61345 34.16503,23.98436 3.786408,1.48367 8.741334,2.85766 12.302443,3.41146 3.426072,0.53279 10.587262,0.54068 14.074052,0.0155 z m -12.60798,-8.0298 c -13.353665,-2.81629 -22.810905,-14.40352 -22.810905,-27.94845 0,-15.7303 12.774145,-28.50444 28.504445,-28.50444 15.7303,0 28.50444,12.77414 28.50444,28.50444 0,11.81453 -7.22804,22.30706 -18.38376,26.68665 -4.53343,1.77976 -10.936,2.29062 -15.81422,1.2618 z m 10.76363,-9.64193 c 8.22912,-2.17984 13.86408,-9.6204 13.86408,-18.30652 0,-7.24193 -3.76005,-13.48595 -10.18233,-16.90899 -5.11628,-2.72695 -12.3874,-2.72695 -17.503686,0 -6.456895,3.44149 -10.176119,9.62148 -10.176119,16.90899 0,12.69644 11.644156,21.57899 23.998055,18.30652 z"
       id="path1" /></g></svg>
